<svg width="13" height="18" viewBox="0 0 13 18" fill="none" xmlns="http://www.w3.org/2000/svg">
<path d="M10.7981 10.0115C10.2415 11.1395 9.48734 12.2633 8.7162 13.2723C7.98468 14.2236 7.2025 15.1349 6.37305 16.0021C5.54358 15.1349 4.76139 14.2237 4.02989 13.2723C3.25875 12.2633 2.50461 11.1395 1.94803 10.0115C1.38508 8.87175 1.06217 7.80427 1.06217 6.88867C1.06217 5.48014 1.62171 4.1293 2.61769 3.13332C3.61368 2.13734 4.96452 1.5778 6.37305 1.5778C7.78158 1.5778 9.13242 2.13734 10.1284 3.13332C11.1244 4.1293 11.6839 5.48014 11.6839 6.88867C11.6839 7.80427 11.36 8.87175 10.7981 10.0115ZM6.37305 17.5104C6.37305 17.5104 12.7461 11.4709 12.7461 6.88867C12.7461 5.19844 12.0747 3.57743 10.8795 2.38225C9.68429 1.18707 8.06328 0.515625 6.37305 0.515625C4.68281 0.515625 3.0618 1.18707 1.86662 2.38225C0.671444 3.57743 2.51865e-08 5.19844 0 6.88867C0 11.4709 6.37305 17.5104 6.37305 17.5104Z" fill="#182C3D"/>
<path d="M6.37305 9.01302C5.80963 9.01302 5.2693 8.78921 4.87091 8.39081C4.47251 7.99242 4.2487 7.45208 4.2487 6.88867C4.2487 6.32526 4.47251 5.78492 4.87091 5.38653C5.2693 4.98814 5.80963 4.76432 6.37305 4.76432C6.93646 4.76432 7.4768 4.98814 7.87519 5.38653C8.27358 5.78492 8.4974 6.32526 8.4974 6.88867C8.4974 7.45208 8.27358 7.99242 7.87519 8.39081C7.4768 8.78921 6.93646 9.01302 6.37305 9.01302ZM6.37305 10.0752C7.21817 10.0752 8.02867 9.73947 8.62626 9.14188C9.22385 8.5443 9.55957 7.73379 9.55957 6.88867C9.55957 6.04355 9.22385 5.23305 8.62626 4.63546C8.02867 4.03787 7.21817 3.70215 6.37305 3.70215C5.52793 3.70215 4.71742 4.03787 4.11983 4.63546C3.52225 5.23305 3.18652 6.04355 3.18652 6.88867C3.18652 7.73379 3.52225 8.5443 4.11983 9.14188C4.71742 9.73947 5.52793 10.0752 6.37305 10.0752Z" fill="#182C3D"/>
</svg>
