<svg xmlns="http://www.w3.org/2000/svg" width="970" height="250" viewBox="0 0 970 250"><rect width="100%" height="100%" fill="#00522e"/><path fill="#FFF" d="M214.69 134.26q.52 0 .92.4l2.49 2.7q-2.07 2.56-5.09 3.92-3.02 1.37-7.25 1.37-3.78 0-6.8-1.3-3.02-1.29-5.16-3.59-2.14-2.31-3.28-5.5-1.14-3.2-1.14-6.98 0-3.83 1.22-7.02 1.22-3.18 3.44-5.48 2.22-2.31 5.3-3.59t6.82-1.28q3.71 0 6.59 1.23 2.88 1.22 4.9 3.19l-2.12 2.94q-.18.28-.48.49-.29.21-.81.21-.35 0-.73-.2-.37-.2-.82-.49t-1.03-.65q-.59-.35-1.37-.64-.77-.3-1.79-.5-1.03-.2-2.37-.2-2.27 0-4.17.82-1.89.81-3.25 2.35-1.36 1.53-2.12 3.76-.75 2.22-.75 5.06 0 2.87.81 5.1t2.2 3.76 3.27 2.34 4.04.81q1.29 0 2.34-.14 1.04-.14 1.92-.45t1.67-.79 1.56-1.18q.24-.21.5-.34t.54-.13m21.81-16.1h5.8v24.11h-3.55q-1.15 0-1.45-1.06l-.4-1.92q-1.48 1.5-3.27 2.43t-4.21.93q-1.97 0-3.49-.67-1.51-.67-2.55-1.9-1.03-1.22-1.56-2.9t-.53-3.7v-15.32h5.81v15.32q0 2.21 1.02 3.42t3.07 1.21q1.5 0 2.82-.67 1.31-.67 2.49-1.84zm27.56 2.61-1.31 2.09q-.24.37-.5.53-.26.15-.66.15-.42 0-.9-.23-.48-.24-1.12-.53-.63-.3-1.44-.53-.81-.24-1.92-.24-1.71 0-2.69.73-.97.73-.97 1.9 0 .78.5 1.31.51.53 1.34.93.84.4 1.89.71 1.06.32 2.15.7 1.1.37 2.15.86 1.06.48 1.9 1.22.83.74 1.34 1.77.5 1.04.5 2.49 0 1.74-.62 3.21t-1.85 2.54q-1.22 1.07-3.02 1.67-1.79.6-4.14.6-1.25 0-2.44-.23-1.18-.22-2.28-.62-1.09-.4-2.02-.94t-1.63-1.17l1.34-2.21q.26-.4.61-.62.35-.21.89-.21t1.03.31q.48.3 1.11.66.64.35 1.49.65.86.31 2.18.31 1.03 0 1.77-.25.74-.24 1.22-.64.49-.4.71-.93t.22-1.09q0-.85-.5-1.39-.51-.54-1.34-.94-.84-.4-1.91-.72-1.07-.31-2.18-.69-1.12-.38-2.19-.88-1.07-.51-1.9-1.28-.83-.78-1.34-1.91-.51-1.12-.51-2.72 0-1.48.59-2.82t1.73-2.34 2.84-1.6q1.71-.6 3.94-.6 2.49 0 4.53.83 2.05.82 3.41 2.16m12.67 21.88q-3.15 0-4.83-1.78-1.68-1.77-1.68-4.9v-13.46h-2.47q-.47 0-.8-.31-.33-.3-.33-.92v-2.3l3.88-.63 1.22-6.58q.12-.47.45-.73t.85-.26h3v7.59h6.44v4.14h-6.44v13.06q0 1.13.56 1.77.55.63 1.51.63.54 0 .91-.13.36-.13.63-.27t.48-.27.43-.13q.25 0 .42.13.16.13.35.39l1.74 2.82q-1.27 1.06-2.91 1.6-1.65.54-3.41.54m20.11-24.87q2.68 0 4.88.87t3.76 2.47 2.41 3.9.85 5.15q0 2.86-.85 5.17-.85 2.3-2.41 3.92t-3.76 2.49-4.88.87q-2.7 0-4.91-.87t-3.77-2.49-2.42-3.92q-.86-2.31-.86-5.17 0-2.85.86-5.15t2.42-3.9 3.77-2.47 4.91-.87m0 20.38q3.01 0 4.46-2.02 1.44-2.02 1.44-5.93 0-3.9-1.44-5.94-1.45-2.05-4.46-2.05-3.05 0-4.52 2.06t-1.47 5.93q0 3.88 1.47 5.91 1.47 2.04 4.52 2.04m22.14 4.11h-5.8v-24.11h3.55q1.12 0 1.48 1.06l.37 1.78q.64-.7 1.33-1.29t1.48-1.01 1.69-.67q.91-.25 1.99-.25 2.28 0 3.75 1.24 1.47 1.23 2.19 3.27.57-1.19 1.41-2.05.85-.86 1.86-1.4t2.15-.8 2.29-.26q2 0 3.55.61t2.61 1.79 1.61 2.87.55 3.87v15.35h-5.8v-15.35q0-2.3-1.01-3.46-1.01-1.17-2.97-1.17-.89 0-1.65.31-.77.31-1.34.88-.58.58-.91 1.45t-.33 1.99v15.35h-5.82v-15.35q0-2.42-.98-3.52-.97-1.11-2.85-1.11-1.27 0-2.37.63-1.09.62-2.03 1.7zm53.04-12.83h10.81l-4.13-11.3q-.31-.76-.64-1.79t-.66-2.23q-.3 1.2-.63 2.24-.33 1.05-.64 1.82zm8.63-21.15 13.34 33.98h-4.88q-.83 0-1.34-.41-.52-.41-.78-1.02l-2.54-6.94h-14.07l-2.54 6.94q-.19.54-.73.98-.54.45-1.34.45h-4.93l13.37-33.98zm31.09 26.84v-10.81q-.99-1.2-2.15-1.7-1.17-.49-2.51-.49-1.31 0-2.37.49-1.06.5-1.81 1.5-.75.99-1.15 2.53t-.4 3.64q0 2.11.34 3.58t.98 2.4q.63.92 1.55 1.34.91.41 2.04.41 1.81 0 3.08-.76 1.27-.75 2.4-2.13m0-27.78h5.8v34.92h-3.55q-1.15 0-1.45-1.06l-.5-2.32q-1.46 1.66-3.35 2.7-1.89 1.03-4.4 1.03-1.98 0-3.62-.82-1.65-.82-2.83-2.39-1.19-1.56-1.84-3.86-.64-2.3-.64-5.26 0-2.68.73-4.99.72-2.3 2.09-3.99 1.36-1.69 3.26-2.65 1.91-.95 4.28-.95 2.02 0 3.45.64 1.44.63 2.57 1.71zm30.19 29.99h6.4q1.76 0 2.96-.43 1.2-.42 1.91-1.13.72-.7 1.04-1.64.31-.94.31-2 0-1.1-.35-1.98-.35-.89-1.1-1.51-.76-.62-1.94-.95-1.19-.33-2.86-.33h-6.37zm5.39-24.16h-5.39V123h5.03q3.25 0 4.9-1.18 1.66-1.17 1.66-3.73 0-2.66-1.5-3.78-1.51-1.13-4.7-1.13m-11.71-4.89h11.71q3.33 0 5.71.63 2.37.64 3.88 1.81 1.52 1.18 2.23 2.85.7 1.67.7 3.76 0 1.2-.35 2.29t-1.09 2.04-1.88 1.73-2.72 1.32q7 1.57 7 7.56 0 2.16-.82 4-.82 1.83-2.4 3.16-1.57 1.33-3.87 2.08-2.31.75-5.27.75h-12.83zm42.77 27.75v-4.06q-2.51.11-4.23.43-1.71.32-2.75.81-1.03.5-1.48 1.15-.44.66-.44 1.44 0 1.53.9 2.18.91.66 2.36.66 1.79 0 3.09-.65 1.31-.64 2.55-1.96m-12.26-12.66-1.04-1.86q4.16-3.81 10.01-3.81 2.12 0 3.79.7 1.66.69 2.82 1.92 1.15 1.24 1.75 2.95.6 1.72.6 3.76v15.23h-2.64q-.82 0-1.27-.25-.44-.24-.7-1l-.52-1.73q-.91.82-1.78 1.44t-1.81 1.05q-.94.42-2.01.64-1.07.23-2.36.23-1.53 0-2.82-.42-1.3-.41-2.24-1.23t-1.45-2.04q-.52-1.23-.52-2.85 0-.91.31-1.82.3-.9.99-1.73.7-.82 1.8-1.55 1.11-.72 2.72-1.27 1.61-.54 3.74-.88 2.14-.34 4.89-.41v-1.41q0-2.42-1.03-3.58-1.04-1.17-2.99-1.17-1.41 0-2.33.33-.93.33-1.64.74-.7.42-1.28.74-.57.33-1.28.33-.61 0-1.03-.31-.43-.32-.68-.74m28.41-4.16.4 1.9q.72-.73 1.54-1.35.81-.62 1.71-1.06.91-.43 1.94-.68t2.26-.25q1.97 0 3.5.67 1.52.67 2.55 1.88 1.02 1.21 1.55 2.89t.53 3.7v15.35h-5.81v-15.35q0-2.2-1.01-3.41-1.01-1.22-3.08-1.22-1.5 0-2.82.69-1.31.68-2.49 1.85v17.44h-5.8v-24.11h3.55q1.12 0 1.48 1.06m26.5 0 .4 1.9q.73-.73 1.54-1.35t1.72-1.06q.9-.43 1.94-.68 1.03-.25 2.25-.25 1.98 0 3.51.67 1.52.67 2.54 1.88 1.03 1.21 1.56 2.89.52 1.68.52 3.7v15.35h-5.8v-15.35q0-2.2-1.01-3.41-1.01-1.22-3.08-1.22-1.5 0-2.82.69-1.31.68-2.49 1.85v17.44h-5.8v-24.11h3.54q1.13 0 1.48 1.06m26.07 8.22h10.95q0-1.13-.32-2.13-.32-.99-.95-1.75-.64-.75-1.61-1.18-.98-.44-2.27-.44-2.51 0-3.96 1.44-1.44 1.43-1.84 4.06m14.8 3.5h-14.92q.14 1.86.66 3.21.51 1.35 1.36 2.23t2.01 1.32q1.16.43 2.57.43t2.43-.32q1.03-.33 1.79-.73t1.34-.73 1.12-.33q.72 0 1.08.54l1.67 2.11q-.97 1.13-2.17 1.9-1.19.76-2.5 1.22-1.3.46-2.65.64-1.36.19-2.62.19-2.52 0-4.68-.83-2.16-.84-3.76-2.47t-2.52-4.04q-.91-2.41-.91-5.58 0-2.47.8-4.64.8-2.18 2.29-3.79t3.64-2.55 4.85-.94q2.28 0 4.21.73t3.31 2.13q1.39 1.4 2.18 3.43.78 2.03.78 4.64 0 1.32-.28 1.77-.28.46-1.08.46m10.83-11.32.36 2.72q1.13-2.16 2.68-3.39 1.55-1.24 3.66-1.24 1.67 0 2.68.73l-.37 4.35q-.12.42-.35.6-.22.17-.59.17-.36 0-1.05-.11-.69-.12-1.35-.12-.97 0-1.72.28t-1.35.81-1.06 1.28q-.45.75-.85 1.72v14.85h-5.81v-24.11h3.41q.89 0 1.24.32.36.31.47 1.14m28.72-1.13q0 2.84 1.47 4.33 1.47 1.5 4.17 1.5 1.41 0 2.52-.45 1.1-.45 1.85-1.22.75-.78 1.14-1.84.39-1.05.39-2.27 0-1.39-.42-2.48-.43-1.1-1.2-1.85-.78-.75-1.85-1.15t-2.33-.4q-1.32 0-2.38.43-1.06.44-1.81 1.22-.75.77-1.15 1.84t-.4 2.34m-2.84 23.78 10.55-13.18q.4-.5.75-.97t.68-.94q-1.17.75-2.58 1.14t-2.96.39q-1.77 0-3.46-.61t-3.01-1.85q-1.31-1.23-2.12-3.05t-.81-4.27q0-2.27.84-4.27.85-2 2.38-3.5 1.52-1.51 3.66-2.38t4.73-.87q2.6 0 4.68.83 2.08.82 3.55 2.3t2.26 3.55.79 4.53q0 1.58-.27 2.99t-.77 2.71q-.49 1.31-1.2 2.55-.7 1.25-1.57 2.47l-7.78 11.09q-.4.56-1.2.95t-1.81.39zm24.53-33.98h23.48v2.51q0 1.13-.24 1.82-.23.7-.47 1.17l-12.87 26.51q-.4.82-1.13 1.39-.73.58-1.95.58h-4.21l13.14-25.97q.44-.8.88-1.47.43-.67.97-1.28h-16.26q-.54 0-.94-.4t-.4-.94zm51.16 16.99q0 4.44-.95 7.72t-2.63 5.42q-1.68 2.13-3.97 3.18-2.3 1.05-4.95 1.05-2.66 0-4.92-1.05-2.27-1.05-3.94-3.18-1.67-2.14-2.61-5.42t-.94-7.72q0-4.47.94-7.73.94-3.27 2.61-5.41t3.94-3.18q2.26-1.05 4.92-1.05 2.65 0 4.95 1.05 2.29 1.04 3.97 3.18t2.63 5.41q.95 3.26.95 7.73m-5.99 0q0-3.69-.54-6.11t-1.45-3.85q-.9-1.44-2.08-2.01-1.17-.58-2.44-.58-1.25 0-2.41.58-1.16.57-2.06 2.01-.89 1.43-1.42 3.85t-.53 6.11.53 6.11 1.42 3.85q.9 1.44 2.06 2.01 1.16.58 2.41.58 1.27 0 2.44-.58 1.18-.57 2.08-2.01.91-1.43 1.45-3.85t.54-6.11m23.31 4.3 8.25 12.69h-5.59q-.64 0-1.03-.33-.38-.33-.64-.75l-5.1-8.39q-.12.4-.27.75t-.34.66l-4.51 6.98q-.26.4-.64.74t-.94.34h-5.19l8.27-12.43-7.94-11.68h5.59q.63 0 .94.18.3.17.54.57l5.05 8.04q.26-.8.73-1.58l4.07-6.34q.51-.87 1.34-.87h5.33zm22.73 7.28h8.71q.94 0 1.5.53.55.53.55 1.4v3.48H701.8v-1.93q0-.58.24-1.23.25-.65.79-1.16l10.32-10.34q1.29-1.32 2.31-2.52t1.71-2.37q.68-1.18 1.04-2.39.37-1.21.37-2.55 0-1.22-.36-2.15-.35-.93-1-1.56-.64-.63-1.55-.95-.9-.32-2.03-.32-1.03 0-1.91.29-.89.3-1.57.83t-1.15 1.23q-.47.71-.7 1.55-.4 1.08-1.04 1.44-.63.35-1.83.16l-3.06-.54q.36-2.44 1.37-4.29 1.01-1.84 2.52-3.08 1.52-1.23 3.48-1.85 1.96-.63 4.22-.63 2.35 0 4.3.7 1.95.69 3.34 1.96 1.38 1.27 2.16 3.05.77 1.79.77 3.97 0 1.88-.55 3.48t-1.48 3.06-2.17 2.82q-1.25 1.36-2.61 2.77l-7.66 7.83q1.1-.33 2.2-.51 1.09-.18 2.08-.18m23.66-23.31-1.2 7.08q1.13-.24 2.16-.34 1.04-.11 2-.11 2.68 0 4.72.8 2.05.8 3.44 2.21 1.38 1.41 2.09 3.3.7 1.89.7 4.08 0 2.7-.95 4.93t-2.64 3.82q-1.7 1.59-4.01 2.46-2.32.87-5.04.87-1.6 0-3.03-.33-1.44-.33-2.69-.88-1.26-.56-2.33-1.27-1.07-.72-1.92-1.52l1.79-2.47q.56-.8 1.48-.8.59 0 1.2.38t1.4.82q.79.45 1.85.83 1.07.37 2.58.37 1.6 0 2.82-.52 1.22-.51 2.03-1.44t1.22-2.21.41-2.78q0-2.78-1.61-4.34t-4.75-1.56q-2.43 0-4.96.89l-3.62-1.03 2.82-16.5h16.78v2.47q0 1.24-.78 2.02-.77.77-2.63.77zm42.61 11.73q0 4.44-.96 7.72-.95 3.28-2.63 5.42-1.68 2.13-3.97 3.18t-4.95 1.05q-2.65 0-4.92-1.05t-3.94-3.18q-1.66-2.14-2.6-5.42t-.94-7.72q0-4.47.94-7.73.94-3.27 2.6-5.41 1.67-2.14 3.94-3.18 2.27-1.05 4.92-1.05 2.66 0 4.95 1.05 2.29 1.04 3.97 3.18t2.63 5.41q.96 3.26.96 7.73m-6 0q0-3.69-.54-6.11t-1.44-3.85q-.91-1.44-2.08-2.01-1.18-.58-2.45-.58-1.24 0-2.41.58-1.16.57-2.05 2.01-.89 1.43-1.42 3.85t-.53 6.11.53 6.11 1.42 3.85q.89 1.44 2.05 2.01 1.17.58 2.41.58 1.27 0 2.45-.58 1.17-.57 2.08-2.01.9-1.43 1.44-3.85t.54-6.11"/></svg>