<svg xmlns="http://www.w3.org/2000/svg" width="300" height="100" viewBox="0 0 300 100"><rect width="100%" height="100%" fill="#00522e"/><path fill="#FFF" d="M63.725 52.95q.17 0 .3.13l.79.86q-.66.82-1.62 1.25-.97.44-2.32.44-1.2 0-2.17-.41-.96-.41-1.64-1.15-.69-.73-1.05-1.75t-.36-2.23q0-1.22.39-2.24t1.09-1.75q.71-.74 1.7-1.15.98-.4 2.17-.4t2.1.39q.92.38 1.57 1.02l-.68.93q-.06.09-.15.16t-.26.07q-.11 0-.23-.07-.12-.06-.26-.15-.15-.1-.33-.21-.19-.11-.44-.21-.25-.09-.57-.15-.33-.07-.76-.07-.72 0-1.33.26-.6.26-1.04.75-.43.49-.67 1.2t-.24 1.62.26 1.63q.26.71.7 1.2.44.48 1.04.74t1.29.26q.41 0 .75-.05.33-.04.61-.14t.53-.25q.26-.15.5-.38.08-.07.16-.11t.17-.04m6.96-5.13h1.86v7.69h-1.14q-.36 0-.46-.34l-.13-.61q-.47.48-1.04.77-.57.3-1.34.3-.63 0-1.12-.21-.48-.22-.81-.61t-.5-.92q-.17-.54-.17-1.18v-4.89h1.85v4.89q0 .7.33 1.09.33.38.98.38.48 0 .9-.21t.79-.59zm8.8.83-.42.67q-.07.11-.16.16-.08.05-.21.05t-.29-.07q-.15-.08-.35-.17t-.46-.17q-.26-.07-.61-.07-.55 0-.86.23t-.31.6q0 .25.16.42t.42.3q.27.12.61.23.34.1.68.22.35.12.69.27t.6.39q.27.24.43.57t.16.79q0 .56-.2 1.03-.19.47-.58.81t-.97.53q-.57.19-1.32.19-.4 0-.78-.07t-.73-.2q-.34-.13-.64-.3t-.52-.37l.43-.71q.08-.13.19-.19.11-.07.29-.07.17 0 .32.1.16.09.36.21.2.11.47.21.28.09.7.09.33 0 .56-.08.24-.07.39-.2.16-.13.23-.3t.07-.35q0-.27-.16-.44t-.43-.3q-.26-.13-.61-.23-.34-.1-.69-.22-.36-.12-.7-.28t-.61-.41q-.26-.25-.43-.61-.16-.36-.16-.87 0-.47.19-.9.19-.42.55-.74.37-.32.91-.51t1.26-.19q.79 0 1.44.26.66.26 1.09.69m4.04 6.98q-1 0-1.54-.57-.53-.56-.53-1.56v-4.3h-.79q-.15 0-.26-.09-.1-.1-.1-.3v-.73l1.24-.2.39-2.1q.03-.15.14-.24.1-.08.27-.08h.96v2.42h2.05v1.32h-2.05v4.17q0 .36.17.57.18.2.49.2.17 0 .29-.04.11-.04.2-.09.09-.04.15-.09.07-.04.14-.04.08 0 .13.04.06.05.12.13l.55.9q-.4.34-.93.51-.52.17-1.09.17m6.42-7.93q.86 0 1.56.27.7.28 1.2.79t.77 1.25q.27.73.27 1.64t-.27 1.65q-.27.73-.77 1.25t-1.2.8q-.7.27-1.56.27t-1.56-.27q-.71-.28-1.21-.8t-.77-1.25q-.27-.74-.27-1.65t.27-1.64q.27-.74.77-1.25t1.21-.79q.7-.27 1.56-.27m0 6.5q.96 0 1.42-.65.47-.64.47-1.89 0-1.24-.47-1.9-.46-.65-1.42-.65-.97 0-1.44.66t-.47 1.89q0 1.24.47 1.89t1.44.65m7.07 1.31h-1.85v-7.69h1.13q.36 0 .47.33l.12.57q.2-.22.42-.41.23-.19.48-.32.25-.14.54-.22.29-.07.63-.07.73 0 1.2.39t.7 1.04q.18-.38.45-.65t.59-.45q.32-.17.69-.25.36-.08.73-.08.64 0 1.13.19.5.2.83.57.34.38.52.92.17.54.17 1.23v4.9h-1.85v-4.9q0-.73-.32-1.1-.32-.38-.95-.38-.28 0-.53.1-.24.1-.42.28-.19.19-.29.46-.11.28-.11.64v4.9h-1.86v-4.9q0-.77-.31-1.12-.31-.36-.91-.36-.4 0-.75.2t-.65.55zm16.93-4.09h3.45l-1.32-3.61q-.1-.24-.21-.57-.1-.33-.21-.71-.09.38-.2.71-.1.34-.2.58zm2.75-6.75 4.26 10.84h-1.56q-.26 0-.43-.13-.16-.13-.25-.33l-.81-2.21h-4.49l-.81 2.21q-.06.18-.23.32t-.43.14h-1.57l4.26-10.84zm9.92 8.56v-3.45q-.31-.38-.69-.54-.37-.16-.79-.16t-.76.16-.58.48-.37.81q-.12.49-.12 1.16t.1 1.14q.11.47.32.76.2.3.49.43t.65.13q.58 0 .99-.24.4-.24.76-.68m0-8.86h1.85v11.14h-1.13q-.37 0-.46-.34l-.16-.74q-.47.53-1.07.86t-1.41.33q-.63 0-1.15-.26-.53-.26-.91-.76-.37-.5-.58-1.24-.21-.73-.21-1.67 0-.86.24-1.6.23-.73.66-1.27.44-.54 1.05-.84.6-.31 1.36-.31.65 0 1.1.21.46.2.82.54zm9.64 9.57h2.04q.56 0 .94-.14.39-.13.61-.36.23-.22.33-.52.11-.31.11-.64 0-.35-.12-.64-.11-.28-.35-.48-.24-.19-.62-.3-.38-.1-.91-.1h-2.03zm1.72-7.72h-1.72v3.14h1.6q1.04 0 1.57-.37.53-.38.53-1.2 0-.84-.48-1.2-.48-.37-1.5-.37m-3.74-1.55h3.74q1.06 0 1.82.2t1.24.58q.48.37.71.9.22.53.22 1.2 0 .39-.11.73-.11.35-.35.66-.23.3-.6.55-.36.25-.86.42 2.23.5 2.23 2.41 0 .69-.26 1.28-.26.58-.77 1.01-.5.42-1.23.66-.74.24-1.68.24h-4.1zm13.65 8.85v-1.29q-.8.03-1.35.13-.55.11-.88.26-.33.16-.47.37t-.14.46q0 .49.29.7.29.2.75.2.57 0 .99-.2.41-.21.81-.63m-3.91-4.04-.33-.59q1.32-1.22 3.19-1.22.68 0 1.21.22.53.23.9.62t.56.94.19 1.2v4.86h-.84q-.26 0-.41-.08-.14-.08-.22-.32l-.17-.55q-.29.26-.57.46-.27.2-.57.33-.3.14-.65.21-.34.07-.75.07-.49 0-.9-.13t-.71-.39q-.3-.27-.47-.66-.16-.39-.16-.9 0-.3.1-.59.09-.28.31-.55.23-.26.58-.49t.86-.41q.52-.17 1.2-.28t1.56-.13v-.45q0-.77-.33-1.14-.33-.38-.95-.38-.45 0-.75.11-.29.1-.52.24-.22.13-.41.23-.18.11-.41.11-.19 0-.33-.1-.13-.1-.21-.24m9.06-1.33.13.61q.23-.23.49-.43t.55-.34.62-.22q.33-.07.72-.07.63 0 1.12.21.48.21.81.6t.49.92q.17.54.17 1.18v4.9h-1.85v-4.9q0-.7-.32-1.09t-.98-.39q-.48 0-.9.22t-.8.6v5.56h-1.85v-7.69h1.13q.36 0 .47.33m8.46 0 .13.61q.23-.23.49-.43t.55-.34.62-.22q.33-.07.72-.07.63 0 1.12.21.48.21.81.6t.49.92q.17.54.17 1.18v4.9h-1.85v-4.9q0-.7-.32-1.09t-.98-.39q-.48 0-.9.22t-.8.6v5.56h-1.85v-7.69h1.13q.36 0 .47.33m8.32 2.63h3.5q0-.36-.11-.68-.1-.32-.3-.56t-.51-.38-.73-.14q-.8 0-1.26.46t-.59 1.3m4.73 1.12h-4.77q.05.59.21 1.02.17.43.44.71t.64.42.82.14.78-.11q.32-.1.57-.23.24-.12.42-.23.19-.1.36-.1.23 0 .35.17l.53.67q-.31.36-.69.61-.38.24-.8.39-.42.14-.85.2t-.83.06q-.81 0-1.5-.26-.69-.27-1.2-.79t-.8-1.29-.29-1.78q0-.79.25-1.48.26-.7.73-1.21.48-.51 1.17-.81.68-.3 1.55-.3.72 0 1.34.23.61.23 1.06.68.44.44.69 1.09t.25 1.48q0 .42-.09.57t-.34.15m3.45-3.62.12.87q.36-.69.85-1.08.5-.4 1.17-.4.53 0 .86.24l-.12 1.38q-.04.14-.11.19-.07.06-.19.06t-.34-.04q-.22-.03-.43-.03-.31 0-.55.08-.24.09-.43.26t-.34.41q-.14.24-.27.55v4.74h-1.85v-7.69h1.09q.28 0 .39.1.12.1.15.36m8.48-.42-.98-.17q.12-.78.44-1.37t.8-.98q.49-.4 1.11-.6.63-.19 1.35-.19.75 0 1.35.21.61.21 1.04.59.42.38.65.89t.23 1.1q0 .52-.12.91-.11.4-.33.69t-.54.49q-.32.21-.73.34.98.31 1.46.94t.48 1.58q0 .81-.3 1.44-.3.62-.81 1.04t-1.18.64-1.42.22q-.82 0-1.43-.19t-1.06-.55q-.45-.37-.76-.9-.32-.53-.54-1.23l.82-.34q.32-.14.6-.07.28.06.41.3.13.27.29.52.17.26.39.45.23.2.53.33.3.12.72.12.48 0 .83-.15.35-.16.59-.4.23-.25.35-.56.12-.3.12-.61 0-.39-.09-.71-.08-.31-.34-.54-.26-.22-.76-.35-.49-.13-1.31-.13V49.3q.68-.01 1.13-.13t.72-.33q.26-.21.37-.51.1-.3.1-.66 0-.77-.42-1.17-.43-.39-1.14-.39-.33 0-.61.09t-.5.26-.37.4q-.15.22-.23.49-.12.35-.33.46t-.58.05m15.24 2.23q0 1.42-.31 2.46-.3 1.05-.84 1.73-.53.68-1.26 1.02-.73.33-1.58.33t-1.57-.33q-.73-.34-1.26-1.02t-.83-1.73q-.3-1.04-.3-2.46 0-1.43.3-2.47t.83-1.73q.53-.68 1.26-1.01.72-.33 1.57-.33t1.58.33 1.26 1.01q.54.69.84 1.73.31 1.04.31 2.47m-1.91 0q0-1.18-.18-1.95-.17-.77-.46-1.23t-.66-.64q-.38-.19-.78-.19t-.77.19q-.37.18-.66.64-.28.46-.45 1.23t-.17 1.95q0 1.17.17 1.95.17.77.45 1.23.29.46.66.64t.77.18.78-.18q.37-.18.66-.64t.46-1.23q.18-.78.18-1.95m10.61 0q0 1.42-.31 2.46-.3 1.05-.84 1.73-.53.68-1.26 1.02-.73.33-1.58.33t-1.57-.33q-.73-.34-1.26-1.02t-.83-1.73q-.3-1.04-.3-2.46 0-1.43.3-2.47t.83-1.73q.53-.68 1.26-1.01.72-.33 1.57-.33t1.58.33 1.26 1.01q.54.69.84 1.73.31 1.04.31 2.47m-1.91 0q0-1.18-.18-1.95-.17-.77-.46-1.23t-.66-.64q-.38-.19-.78-.19t-.77.19q-.37.18-.66.64-.28.46-.45 1.23t-.17 1.95q0 1.17.17 1.95.17.77.45 1.23.29.46.66.64t.77.18.78-.18q.37-.18.66-.64t.46-1.23q.18-.78.18-1.95m7.44 1.37 2.63 4.05h-1.79q-.2 0-.32-.1-.13-.11-.21-.24l-1.63-2.68q-.03.12-.08.24-.05.11-.11.21l-1.44 2.23q-.08.12-.2.23t-.3.11h-1.66l2.64-3.97-2.54-3.72h1.79q.2 0 .3.05.1.06.17.18l1.61 2.57q.09-.25.24-.5l1.29-2.03q.17-.27.43-.27h1.7zm8.49 2.66h1.95v1.39h-6v-1.39h2.19V47.8q0-.37.03-.77l-1.56 1.3q-.14.11-.27.13-.13.03-.25.01-.11-.02-.2-.08t-.14-.13l-.58-.8 3.3-2.81h1.53zm11.21-4.03q0 1.42-.31 2.46-.3 1.05-.84 1.73-.53.68-1.26 1.02-.73.33-1.58.33t-1.57-.33q-.73-.34-1.26-1.02t-.83-1.73q-.3-1.04-.3-2.46 0-1.43.3-2.47t.83-1.73q.53-.68 1.26-1.01.72-.33 1.57-.33t1.58.33 1.26 1.01q.54.69.84 1.73.31 1.04.31 2.47m-1.91 0q0-1.18-.18-1.95-.17-.77-.46-1.23t-.66-.64q-.38-.19-.78-.19t-.77.19q-.37.18-.66.64-.28.46-.45 1.23t-.17 1.95q0 1.17.17 1.95.17.77.45 1.23.29.46.66.64t.77.18.78-.18q.37-.18.66-.64t.46-1.23q.18-.78.18-1.95m10.61 0q0 1.42-.31 2.46-.3 1.05-.84 1.73-.53.68-1.26 1.02-.73.33-1.58.33t-1.57-.33q-.73-.34-1.26-1.02t-.83-1.73q-.3-1.04-.3-2.46 0-1.43.3-2.47t.83-1.73q.53-.68 1.26-1.01.72-.33 1.57-.33t1.58.33 1.26 1.01q.54.69.84 1.73.31 1.04.31 2.47m-1.91 0q0-1.18-.18-1.95-.17-.77-.46-1.23t-.66-.64q-.38-.19-.78-.19t-.77.19q-.37.18-.66.64-.28.46-.45 1.23t-.17 1.95q0 1.17.17 1.95.17.77.45 1.23.29.46.66.64t.77.18.78-.18q.37-.18.66-.64t.46-1.23q.18-.78.18-1.95"/></svg>